<svg
  xmlns="http://www.w3.org/2000/svg"
  viewBox="0 0 1600 1000"
  fill="none"
>
  <defs>
    <linearGradient id="chainBody" x1="0" y1="-42" x2="0" y2="42" gradientUnits="userSpaceOnUse">
      <stop offset="0" stop-color="#08160e" />
      <stop offset="0.55" stop-color="#020504" />
      <stop offset="1" stop-color="#000000" />
    </linearGradient>
    <linearGradient id="chainEdge" x1="-104" y1="-40" x2="104" y2="40" gradientUnits="userSpaceOnUse">
      <stop offset="0" stop-color="#55ff94" />
      <stop offset="0.28" stop-color="#9dffbf" />
      <stop offset="0.56" stop-color="#143b20" />
      <stop offset="0.82" stop-color="#7cffac" />
      <stop offset="1" stop-color="#17391d" />
    </linearGradient>
    <linearGradient id="chainInner" x1="-78" y1="0" x2="78" y2="0" gradientUnits="userSpaceOnUse">
      <stop offset="0" stop-color="#76ffaf" />
      <stop offset="0.5" stop-color="#1d4026" />
      <stop offset="1" stop-color="#9dffd2" />
    </linearGradient>
    <filter id="chainGlow" x="-240" y="-180" width="480" height="360" filterUnits="userSpaceOnUse">
      <feGaussianBlur stdDeviation="9" result="blur" />
      <feColorMatrix
        in="blur"
        type="matrix"
        values="1 0 0 0 0
                0 1 0 0 0.62
                0 0 1 0 0.28
                0 0 0 0.9 0"
      />
    </filter>
    <filter id="chainShadow" x="-140" y="-84" width="280" height="168" filterUnits="userSpaceOnUse">
      <feDropShadow dx="0" dy="10" stdDeviation="12" flood-color="#000000" flood-opacity="0.8" />
    </filter>
    <symbol id="chain-link" viewBox="-110 -54 220 108">
      <g filter="url(#chainGlow)" opacity="0.62">
        <rect x="-88" y="-28" width="176" height="56" rx="28" stroke="#66ff9e" stroke-width="10" />
      </g>
      <g filter="url(#chainShadow)">
        <rect
          x="-94"
          y="-32"
          width="188"
          height="64"
          rx="32"
          fill="url(#chainBody)"
          stroke="url(#chainEdge)"
          stroke-width="6"
        />
        <rect
          x="-74"
          y="-14"
          width="148"
          height="28"
          rx="14"
          fill="#010202"
          stroke="url(#chainInner)"
          stroke-width="3"
          opacity="0.94"
        />
        <path
          d="M-80 -13C-57 -25 -31 -30 0 -30C33 -30 58 -24 81 -11"
          stroke="#8fffbc"
          stroke-linecap="round"
          stroke-opacity="0.9"
          stroke-width="2.6"
        />
        <path
          d="M-68 12C-40 22 -16 26 10 24C31 23 51 18 72 8"
          stroke="#0a2010"
          stroke-linecap="round"
          stroke-opacity="0.9"
          stroke-width="2.2"
        />
      </g>
    </symbol>
  </defs>

  <g opacity="0.95">
    <use href="#chain-link" transform="translate(-30 128) rotate(-8) scale(1.55)" />
    <use href="#chain-link" transform="translate(146 122) rotate(-4) scale(1.55)" />
    <use href="#chain-link" transform="translate(324 120) rotate(0) scale(1.55)" />
    <use href="#chain-link" transform="translate(504 118) rotate(4) scale(1.55)" />
    <use href="#chain-link" transform="translate(684 118) rotate(7) scale(1.55)" />
    <use href="#chain-link" transform="translate(868 124) rotate(10) scale(1.55)" />
    <use href="#chain-link" transform="translate(1052 138) rotate(12) scale(1.55)" />
    <use href="#chain-link" transform="translate(1240 160) rotate(14) scale(1.55)" />
    <use href="#chain-link" transform="translate(1428 190) rotate(16) scale(1.55)" />
    <use href="#chain-link" transform="translate(1614 226) rotate(18) scale(1.55)" />
  </g>

  <g opacity="0.88">
    <use href="#chain-link" transform="translate(-98 420) rotate(10) scale(1.24)" />
    <use href="#chain-link" transform="translate(60 450) rotate(12) scale(1.24)" />
    <use href="#chain-link" transform="translate(220 482) rotate(14) scale(1.24)" />
    <use href="#chain-link" transform="translate(386 520) rotate(16) scale(1.24)" />
    <use href="#chain-link" transform="translate(556 560) rotate(17) scale(1.24)" />
    <use href="#chain-link" transform="translate(732 602) rotate(18) scale(1.24)" />
    <use href="#chain-link" transform="translate(916 648) rotate(19) scale(1.24)" />
    <use href="#chain-link" transform="translate(1108 696) rotate(19) scale(1.24)" />
    <use href="#chain-link" transform="translate(1306 748) rotate(18) scale(1.24)" />
    <use href="#chain-link" transform="translate(1506 804) rotate(17) scale(1.24)" />
  </g>

  <g opacity="0.72">
    <use href="#chain-link" transform="translate(-64 718) rotate(6) scale(1.16)" />
    <use href="#chain-link" transform="translate(110 728) rotate(5) scale(1.16)" />
    <use href="#chain-link" transform="translate(290 742) rotate(4) scale(1.16)" />
    <use href="#chain-link" transform="translate(474 760) rotate(5) scale(1.16)" />
    <use href="#chain-link" transform="translate(660 782) rotate(6) scale(1.16)" />
    <use href="#chain-link" transform="translate(850 806) rotate(7) scale(1.16)" />
    <use href="#chain-link" transform="translate(1044 834) rotate(8) scale(1.16)" />
    <use href="#chain-link" transform="translate(1240 866) rotate(10) scale(1.16)" />
    <use href="#chain-link" transform="translate(1438 904) rotate(11) scale(1.16)" />
  </g>

  <g opacity="0.54">
    <use href="#chain-link" transform="translate(1138 -36) rotate(22) scale(1.05)" />
    <use href="#chain-link" transform="translate(1266 18) rotate(24) scale(1.05)" />
    <use href="#chain-link" transform="translate(1394 86) rotate(27) scale(1.05)" />
    <use href="#chain-link" transform="translate(1518 170) rotate(31) scale(1.05)" />
  </g>
</svg>
